<?xml version="1.0" encoding="utf-8"?>
<!-- Generator: Adobe Illustrator 16.0.0, SVG Export Plug-In . SVG Version: 6.00 Build 0)  -->
<!DOCTYPE svg PUBLIC "-//W3C//DTD SVG 1.1//EN" "http://www.w3.org/Graphics/SVG/1.1/DTD/svg11.dtd">
<svg version="1.1" id="Layer_1" xmlns="http://www.w3.org/2000/svg" xmlns:xlink="http://www.w3.org/1999/xlink" x="0px" y="0px"
	 width="200px" height="200px" viewBox="0 0 200 200" enable-background="new 0 0 200 200" xml:space="preserve">
<g opacity="0.2">
	<polygon fill="#666666" points="-26.5,183.275 -36.162,192.934 30.442,220.897 58.405,287.5 68.065,277.841 40.102,211.239 	"/>
	<polygon fill="#666666" points="-2.892,170.414 -11.947,179.466 50.479,205.676 76.687,268.1 85.741,259.046 59.532,196.623 	"/>
	<polygon fill="#666666" points="20.718,157.553 12.269,165.999 70.515,190.454 94.969,248.699 103.417,240.252 78.963,182.008 	"/>
	<polygon fill="#666666" points="44.326,144.69 36.483,152.531 90.551,175.231 113.251,229.298 121.093,221.457 98.393,167.391 	"/>
	<polygon fill="#666666" points="67.936,131.829 60.698,139.064 110.588,160.01 131.533,209.897 138.769,202.663 117.823,152.775 	
		"/>
	<polygon fill="#666666" points="91.545,118.968 84.914,125.597 130.624,144.788 149.815,190.497 156.444,183.869 137.254,138.16 	
		"/>
	<polygon fill="#666666" points="115.153,106.106 109.129,112.129 150.66,129.566 168.097,171.097 174.12,165.074 156.685,123.544 	
		"/>
	<polygon fill="#666666" points="138.763,93.245 133.344,98.662 170.696,114.345 186.379,151.696 191.796,146.279 176.114,108.928 	
		"/>
	<polygon fill="#666666" points="162.372,80.384 157.559,85.194 190.733,99.123 204.661,132.296 209.472,127.485 195.545,94.312 	
		"/>
	<polygon fill="#666666" points="185.98,67.521 181.773,71.728 210.77,83.9 222.942,112.896 227.147,108.69 214.976,79.696 	"/>
	<polygon fill="#666666" points="209.589,54.66 205.989,58.26 230.806,68.679 241.225,93.495 244.824,89.896 234.405,65.08 	"/>
	<polygon fill="#666666" points="233.198,41.799 230.204,44.792 250.842,53.457 259.507,74.094 262.5,71.102 253.836,50.464 	"/>
</g>
</svg>
