<?xml version="1.0" encoding="utf-8"?>
<!-- Generator: Adobe Illustrator 16.0.0, SVG Export Plug-In . SVG Version: 6.00 Build 0)  -->
<!DOCTYPE svg PUBLIC "-//W3C//DTD SVG 1.1//EN" "http://www.w3.org/Graphics/SVG/1.1/DTD/svg11.dtd">
<svg version="1.1" xmlns="http://www.w3.org/2000/svg" xmlns:xlink="http://www.w3.org/1999/xlink" x="0px" y="0px" width="50px"
	 height="50px" viewBox="0 0 50 50" enable-background="new 0 0 50 50" xml:space="preserve">
<g id="Layer_1" display="none">
</g>
<g id="Layer_1_copy">
	<g>
		<linearGradient id="SVGID_1_" gradientUnits="userSpaceOnUse" x1="4.882813e-004" y1="50.001" x2="50.0007" y2="7.934570e-004">
			<stop  offset="0" style="stop-color:#E94E1B"/>
			<stop  offset="1" style="stop-color:#F9B233"/>
		</linearGradient>
		<path fill="url(#SVGID_1_)" d="M47,3v37c0,3.859-3.141,7-7,7H3V10c0-3.86,3.14-7,7-7H47 M50,0H10C4.5,0,0,4.5,0,10v40h40
			c5.5,0,10-4.5,10-10V0L50,0z"/>
	</g>
	<linearGradient id="SVGID_2_" gradientUnits="userSpaceOnUse" x1="8.0586" y1="24.9995" x2="41.9414" y2="24.9995">
		<stop  offset="0" style="stop-color:#E94E1B"/>
		<stop  offset="1" style="stop-color:#F9B233"/>
	</linearGradient>
	<path display="none" fill="url(#SVGID_2_)" d="M25,11.111c4.524,0,5.059,0.017,6.847,0.099c1.651,0.075,2.548,0.351,3.146,0.583
		c0.791,0.308,1.355,0.675,1.947,1.268c0.595,0.592,0.961,1.157,1.268,1.948c0.233,0.597,0.509,1.494,0.583,3.146
		c0.082,1.787,0.1,2.322,0.1,6.846s-0.018,5.06-0.1,6.847c-0.074,1.651-0.35,2.549-0.583,3.146
		c-0.307,0.791-0.673,1.355-1.268,1.947c-0.592,0.595-1.156,0.961-1.947,1.268c-0.598,0.233-1.494,0.509-3.146,0.584
		C30.059,38.872,29.524,38.89,25,38.89s-5.059-0.018-6.846-0.099c-1.652-0.075-2.549-0.351-3.146-0.584
		c-0.791-0.307-1.355-0.673-1.948-1.268c-0.592-0.592-0.96-1.156-1.268-1.947c-0.231-0.597-0.508-1.494-0.583-3.146
		c-0.081-1.787-0.099-2.322-0.099-6.847s0.018-5.059,0.099-6.846c0.075-1.651,0.352-2.548,0.583-3.146
		c0.308-0.791,0.675-1.356,1.268-1.948c0.592-0.593,1.157-0.96,1.948-1.268c0.597-0.232,1.494-0.508,3.146-0.583
		C19.941,11.128,20.476,11.111,25,11.111 M25,8.058c-4.601,0-5.179,0.02-6.985,0.102c-1.803,0.083-3.036,0.369-4.113,0.788
		c-1.114,0.433-2.059,1.012-3,1.954c-0.942,0.942-1.521,1.886-1.955,3c-0.419,1.077-0.706,2.31-0.788,4.112
		C8.078,19.822,8.059,20.398,8.059,25c0,4.601,0.019,5.179,0.101,6.985c0.082,1.803,0.369,3.035,0.788,4.112
		c0.433,1.114,1.013,2.06,1.955,3.001c0.941,0.941,1.886,1.521,3,1.954c1.078,0.419,2.31,0.704,4.113,0.788
		c1.806,0.082,2.384,0.101,6.985,0.101c4.602,0,5.179-0.019,6.986-0.101c1.802-0.084,3.034-0.369,4.111-0.788
		c1.114-0.433,2.059-1.013,3.001-1.954c0.943-0.941,1.521-1.887,1.954-3.001c0.419-1.077,0.704-2.31,0.788-4.112
		c0.082-1.807,0.101-2.385,0.101-6.985c0-4.602-0.019-5.178-0.101-6.985c-0.083-1.803-0.369-3.035-0.788-4.112
		c-0.433-1.114-1.011-2.059-1.954-3c-0.942-0.942-1.887-1.521-3.001-1.954c-1.077-0.419-2.31-0.706-4.111-0.788
		C30.179,8.078,29.602,8.058,25,8.058"/>
	<linearGradient id="SVGID_3_" gradientUnits="userSpaceOnUse" x1="16.2998" y1="25" x2="33.7002" y2="25">
		<stop  offset="0" style="stop-color:#E94E1B"/>
		<stop  offset="1" style="stop-color:#F9B233"/>
	</linearGradient>
	<path display="none" fill="url(#SVGID_3_)" d="M25,16.3c-4.805,0-8.7,3.895-8.7,8.7c0,4.806,3.896,8.7,8.7,8.7
		c4.804,0,8.7-3.895,8.7-8.7C33.7,20.195,29.804,16.3,25,16.3 M25,30.648c-3.119,0-5.647-2.529-5.647-5.648s2.529-5.647,5.647-5.647
		c3.118,0,5.648,2.528,5.648,5.647S28.118,30.648,25,30.648"/>
	<linearGradient id="SVGID_4_" gradientUnits="userSpaceOnUse" x1="32.0107" y1="15.9565" x2="36.0762" y2="15.9565">
		<stop  offset="0" style="stop-color:#E94E1B"/>
		<stop  offset="1" style="stop-color:#F9B233"/>
	</linearGradient>
	<path display="none" fill="url(#SVGID_4_)" d="M36.076,15.957c0,1.122-0.909,2.033-2.033,2.033c-1.122,0-2.032-0.911-2.032-2.033
		c0-1.124,0.91-2.034,2.032-2.034C35.167,13.923,36.076,14.833,36.076,15.957z"/>
	<g id="Layer_3">
		<g id="Layer_4">
			<g>
				<linearGradient id="SVGID_5_" gradientUnits="userSpaceOnUse" x1="17.1465" y1="25.0005" x2="31.3535" y2="25.0005">
					<stop  offset="0" style="stop-color:#E94E1B"/>
					<stop  offset="1" style="stop-color:#F9B233"/>
				</linearGradient>
				<path fill="url(#SVGID_5_)" d="M20.254,25.001c-1,0-1.999,0-3.108,0c0-1.665,0-3.441,0-5.106c0.999,0,1.998,0,3.108,0
					c0-1.665,0-3.33,0-4.995c0.11-1.332,0.555-2.663,1.555-3.552c1.22-1.11,2.885-1.553,4.439-1.553c1.666,0,3.33,0,5.105,0
					c0,1.775,0,3.552,0,5.328c-1.109,0-2.219,0-3.33,0c-0.665,0-1.442,0.444-1.554,1.22c0,1.222,0,2.332,0,3.552
					c1.554,0,3.22,0,4.773,0c-0.112,1.777-0.335,3.442-0.556,5.106c-1.443,0-2.773,0-4.218,0c0,5.105,0,10.212,0,15.205
					c-2.108,0-4.107,0-6.215,0"/>
			</g>
		</g>
	</g>
	<g opacity="0.5">
		<defs>
			<path id="SVGID_6_" opacity="0.5" d="M50,0v40c0,5.5-4.5,10-10,10H0V10C0,4.5,4.5,0,10,0H50z"/>
		</defs>
		<clipPath id="SVGID_7_">
			<use xlink:href="#SVGID_6_"  overflow="visible"/>
		</clipPath>
		<polygon opacity="0.3" clip-path="url(#SVGID_7_)" fill="#010202" points="0,50 50,0 0,0 		"/>
	</g>
</g>
</svg>
