<?xml version="1.0" encoding="utf-8"?>
<!-- Generator: Adobe Illustrator 16.0.0, SVG Export Plug-In . SVG Version: 6.00 Build 0)  -->
<!DOCTYPE svg PUBLIC "-//W3C//DTD SVG 1.1//EN" "http://www.w3.org/Graphics/SVG/1.1/DTD/svg11.dtd">
<svg version="1.1" id="Layer_1" xmlns="http://www.w3.org/2000/svg" xmlns:xlink="http://www.w3.org/1999/xlink" x="0px" y="0px"
	 width="175px" height="50px" viewBox="0 0 175 50" enable-background="new 0 0 175 50" xml:space="preserve">
<g>
	<defs>
		<rect id="SVGID_1_" x="-86.558" y="-146.657" width="340.16" height="340.16"/>
	</defs>
	<clipPath id="SVGID_2_">
		<use xlink:href="#SVGID_1_"  overflow="visible"/>
	</clipPath>
	<path clip-path="url(#SVGID_2_)" fill="#FFFFFF" d="M1.929,42.077V17.013h6.133v2.966c0.537-0.838,1.097-1.491,1.685-1.961
		c0.586-0.469,1.189-0.829,1.81-1.081c0.62-0.252,1.248-0.41,1.886-0.477c0.635-0.068,1.289-0.101,1.961-0.101h0.853v6.686
		c-0.603-0.1-1.206-0.149-1.81-0.149c-3.989,0-5.983,1.995-5.983,5.982v13.199H1.929z"/>
	<path clip-path="url(#SVGID_2_)" fill="#FFFFFF" d="M23.019,31.09c0.1,1.877,0.645,3.368,1.634,4.476
		c0.987,1.105,2.288,1.657,3.896,1.657c1.072,0,2.019-0.242,2.841-0.729c0.821-0.485,1.348-1.164,1.584-2.036h6.737
		c-0.772,2.548-2.112,4.509-4.023,5.883c-1.91,1.375-4.19,2.062-6.837,2.062c-8.246,0-12.369-4.491-12.369-13.475
		c0-1.91,0.269-3.637,0.805-5.178c0.536-1.541,1.315-2.865,2.338-3.972c1.022-1.106,2.27-1.953,3.746-2.54
		c1.475-0.585,3.168-0.879,5.078-0.879c3.82,0,6.712,1.224,8.672,3.67c1.961,2.447,2.941,6.135,2.941,11.061H23.019z M33.325,26.967
		c-0.034-0.904-0.193-1.7-0.479-2.387c-0.285-0.688-0.662-1.258-1.13-1.709c-0.47-0.453-1.006-0.787-1.61-1.007
		c-0.602-0.218-1.223-0.327-1.859-0.327c-1.307,0-2.439,0.479-3.395,1.434c-0.955,0.955-1.5,2.287-1.632,3.996H33.325z"/>
</g>
<g>
	<defs>
		<path id="SVGID_3_" d="M80.719,17.146c-1.345,0.387-2.458,0.91-3.31,1.558c-0.865,0.657-1.505,1.432-1.906,2.303
			c-0.399,0.865-0.6,1.793-0.6,2.76c0,1.05,0.146,2.015,0.438,2.865c0.298,0.882,0.88,1.698,1.733,2.426
			c0.829,0.712,1.992,1.368,3.458,1.95c1.447,0.576,3.374,1.133,5.726,1.655c1.251,0.281,2.186,0.608,2.778,0.974
			c0.508,0.313,0.754,0.82,0.754,1.551c0,0.387-0.106,0.948-1.045,1.354c-0.805,0.35-1.791,0.527-2.934,0.527
			c-1.341,0-2.437-0.287-3.256-0.855c-0.783-0.54-1.163-1.291-1.163-2.295v-0.413h-7.378l0.01,0.424
			c0.034,1.325,0.338,2.545,0.901,3.622c0.565,1.077,1.376,2.012,2.416,2.776c1.027,0.759,2.28,1.347,3.721,1.75
			c1.431,0.398,3.044,0.602,4.798,0.602c3.593,0,6.357-0.745,8.213-2.213c1.885-1.492,2.842-3.399,2.842-5.669
			c0-1.451-0.201-2.632-0.599-3.514c-0.405-0.899-1.08-1.657-2.008-2.254c-0.892-0.57-2.087-1.072-3.551-1.488
			c-1.434-0.406-3.19-0.902-5.273-1.49c-1.229-0.346-2.174-0.709-2.809-1.082c-0.542-0.317-0.796-0.699-0.796-1.203
			c0-0.585,0.242-0.971,0.761-1.211c0.609-0.282,1.544-0.426,2.78-0.426c1.268,0,2.211,0.228,2.802,0.672
			c0.573,0.436,0.938,1.158,1.085,2.147l0.052,0.353h6.901l-0.03-0.44c-0.171-2.575-1.104-4.624-2.776-6.092
			c-1.666-1.46-4.302-2.201-7.838-2.201C83.699,16.569,82.052,16.763,80.719,17.146"/>
	</defs>
	<use xlink:href="#SVGID_3_"  overflow="visible" fill="#FFFFFF"/>
	<clipPath id="SVGID_4_">
		<use xlink:href="#SVGID_3_"  overflow="visible"/>
	</clipPath>
	<rect x="74.014" y="16.569" clip-path="url(#SVGID_4_)" fill="#FFFFFF" width="22.901" height="26.111"/>
</g>
<g>
	<defs>
		<path id="SVGID_5_" d="M112.978,16.87v14.275c0,1.491-0.388,2.726-1.152,3.67c-0.755,0.932-1.854,1.385-3.364,1.385
			c-2.481,0-3.638-1.295-3.638-4.076V16.87H97.65v16.228c0,1.379,0.215,2.645,0.637,3.759c0.423,1.117,1.019,2.099,1.766,2.915
			c0.755,0.822,1.664,1.464,2.707,1.907c1.04,0.444,2.202,0.668,3.457,0.668c3.003,0,5.368-1.046,7.055-3.113v2.479h6.831V16.87
			H112.978z"/>
	</defs>
	<use xlink:href="#SVGID_5_"  overflow="visible" fill="#FFFFFF"/>
	<clipPath id="SVGID_6_">
		<use xlink:href="#SVGID_5_"  overflow="visible"/>
	</clipPath>
	<rect x="97.65" y="16.87" clip-path="url(#SVGID_6_)" fill="#FFFFFF" width="22.452" height="25.477"/>
</g>
<g>
	<defs>
		<path id="SVGID_7_" d="M135.648,16.235c-0.662,0-1.316,0.034-1.947,0.1c-0.656,0.069-1.309,0.235-1.942,0.492
			c-0.637,0.257-1.263,0.631-1.86,1.109c-0.327,0.264-0.651,0.583-0.963,0.958V16.87h-6.782v24.842h7.173v-12.91
			c0-3.628,1.765-5.394,5.395-5.394c0.561,0,1.128,0.047,1.689,0.141l0.482,0.08v-7.394H135.648z"/>
	</defs>
	<use xlink:href="#SVGID_7_"  overflow="visible" fill="#FFFFFF"/>
	<clipPath id="SVGID_8_">
		<use xlink:href="#SVGID_7_"  overflow="visible"/>
	</clipPath>
	<rect x="122.153" y="16.235" clip-path="url(#SVGID_8_)" fill="#FFFFFF" width="14.739" height="25.477"/>
</g>
<g>
	<defs>
		<polygon id="SVGID_9_" points="154.363,16.87 149.591,31.783 146.363,16.87 138.396,16.87 145.783,41.712 153.003,41.712 
			161.94,16.87 		"/>
	</defs>
	<use xlink:href="#SVGID_9_"  overflow="visible" fill="#FFFFFF"/>
	<clipPath id="SVGID_10_">
		<use xlink:href="#SVGID_9_"  overflow="visible"/>
	</clipPath>
	<rect x="138.396" y="16.87" clip-path="url(#SVGID_10_)" fill="#FFFFFF" width="23.544" height="24.842"/>
</g>
<g>
	<defs>
		<rect id="SVGID_11_" x="-86.558" y="-146.657" width="340.16" height="340.16"/>
	</defs>
	<clipPath id="SVGID_12_">
		<use xlink:href="#SVGID_11_"  overflow="visible"/>
	</clipPath>
	<rect x="65.594" y="8.267" clip-path="url(#SVGID_12_)" fill="#FFFFFF" width="6.536" height="33.785"/>
	<path clip-path="url(#SVGID_12_)" fill="#FFFFFF" d="M57.511,41.837c-0.202-0.639-0.337-1.379-0.403-2.221
		c-0.775,0.876-1.8,1.572-3.079,2.095c-1.278,0.521-2.758,0.781-4.44,0.781c-2.859,0-4.953-0.63-6.28-1.893
		c-1.329-1.261-1.993-2.899-1.993-4.919c0-1.781,0.285-3.203,0.857-4.263c0.572-1.059,1.363-1.892,2.371-2.497
		c1.01-0.606,2.211-1.052,3.608-1.337c1.395-0.285,2.918-0.547,4.566-0.783c1.648-0.233,2.758-0.545,3.33-0.932
		c0.572-0.387,0.858-1.018,0.858-1.893c0-0.807-0.379-1.438-1.135-1.893c-0.757-0.453-1.776-0.68-3.053-0.68
		c-1.514,0-2.598,0.336-3.254,1.008c-0.656,0.674-1.068,1.564-1.236,2.674h-6.106c0.034-1.277,0.245-2.453,0.631-3.531
		c0.387-1.076,1.01-2,1.867-2.774c0.858-0.774,1.976-1.371,3.356-1.791c1.379-0.42,3.06-0.631,5.045-0.631
		c1.95,0,3.607,0.219,4.97,0.656c1.362,0.437,2.455,1.068,3.279,1.892c0.823,0.824,1.421,1.85,1.791,3.078
		c0.37,1.229,0.556,2.615,0.556,4.161v15.691H57.511z M57.057,29.677c-0.337,0.337-0.824,0.605-1.464,0.809
		c-0.639,0.2-1.564,0.421-2.773,0.654c-1.885,0.371-3.18,0.842-3.886,1.413c-0.706,0.572-1.06,1.397-1.06,2.474
		c0,1.85,1.06,2.773,3.179,2.773c0.841,0,1.622-0.143,2.347-0.429c0.722-0.285,1.343-0.672,1.866-1.16
		c0.52-0.487,0.941-1.059,1.261-1.715c0.319-0.656,0.48-1.354,0.48-2.094L57.057,29.677z"/>
	<rect x="164.469" y="5.775" clip-path="url(#SVGID_12_)" fill="#FFFFFF" width="0.96" height="6.275"/>
	<polygon clip-path="url(#SVGID_12_)" fill="#FFFFFF" points="163.048,12.198 155.563,12.198 155.271,13.397 163.048,13.397 	"/>
	<rect x="165.429" y="16.252" clip-path="url(#SVGID_12_)" fill="#FFFFFF" width="0.96" height="9.201"/>
	<rect x="166.352" y="13.396" clip-path="url(#SVGID_12_)" fill="#FFFFFF" width="7.203" height="1.202"/>
	<polygon clip-path="url(#SVGID_12_)" fill="#FFFFFF" points="163.198,14.598 154.948,14.598 154.632,15.798 163.198,15.798 	"/>
	<rect x="163.506" y="16.252" clip-path="url(#SVGID_12_)" fill="#FFFFFF" width="0.963" height="9.201"/>
</g>
</svg>
