<?xml version="1.0" encoding="utf-8"?>
<!-- Generator: Adobe Illustrator 16.0.0, SVG Export Plug-In . SVG Version: 6.00 Build 0)  -->
<!DOCTYPE svg PUBLIC "-//W3C//DTD SVG 1.1//EN" "http://www.w3.org/Graphics/SVG/1.1/DTD/svg11.dtd">
<svg version="1.1" xmlns="http://www.w3.org/2000/svg" xmlns:xlink="http://www.w3.org/1999/xlink" x="0px" y="0px" width="50px"
	 height="50px" viewBox="0 0 50 50" enable-background="new 0 0 50 50" xml:space="preserve">
<g id="Layer_1">
</g>
<g id="Layer_1_copy">
	<linearGradient id="SVGID_1_" gradientUnits="userSpaceOnUse" x1="5.25" y1="11" x2="45.25" y2="11">
		<stop  offset="0" style="stop-color:#E94E1B"/>
		<stop  offset="1" style="stop-color:#F9B233"/>
	</linearGradient>
	<path fill="url(#SVGID_1_)" d="M45.25,7v4c0,2.2-1.8,4-4,4h-36v-4c0-2.2,1.8-4,4-4H45.25z"/>
	<linearGradient id="SVGID_2_" gradientUnits="userSpaceOnUse" x1="5" y1="25" x2="45" y2="25">
		<stop  offset="0" style="stop-color:#E94E1B"/>
		<stop  offset="1" style="stop-color:#F9B233"/>
	</linearGradient>
	<path fill="url(#SVGID_2_)" d="M45,21v4c0,2.2-1.8,4-4,4H5v-4c0-2.2,1.8-4,4-4H45z"/>
	<linearGradient id="SVGID_3_" gradientUnits="userSpaceOnUse" x1="5" y1="39" x2="45" y2="39">
		<stop  offset="0" style="stop-color:#E94E1B"/>
		<stop  offset="1" style="stop-color:#F9B233"/>
	</linearGradient>
	<path fill="url(#SVGID_3_)" d="M45,35v4c0,2.2-1.8,4-4,4H5v-4c0-2.2,1.8-4,4-4H45z"/>
</g>
</svg>
