<?xml version="1.0" encoding="utf-8"?>
<!-- Generator: Adobe Illustrator 16.0.0, SVG Export Plug-In . SVG Version: 6.00 Build 0)  -->
<!DOCTYPE svg PUBLIC "-//W3C//DTD SVG 1.1//EN" "http://www.w3.org/Graphics/SVG/1.1/DTD/svg11.dtd">
<svg version="1.1" xmlns="http://www.w3.org/2000/svg" xmlns:xlink="http://www.w3.org/1999/xlink" x="0px" y="0px" width="180px"
	 height="180px" viewBox="0 0 180 180" enable-background="new 0 0 180 180" xml:space="preserve">
<g id="Layer_1">
	<polygon fill="none" stroke="#F39200" stroke-width="6" stroke-miterlimit="10" points="16.389,47.5 90,5 163.611,47.5 
		163.611,132.5 90,175 16.389,132.5 	"/>
	<polyline display="none" fill="none" stroke="#F39200" stroke-width="4" stroke-miterlimit="10" points="56.25,69.375 90,93.75 
		123.75,67.5 	"/>
	<polygon display="none" fill="none" stroke="#F39200" stroke-width="4" stroke-miterlimit="10" points="56.25,77.5 90,47.5 
		125,77.5 125,122.5 56.25,122.5 	"/>
	
		<line display="none" fill="none" stroke="#F39200" stroke-width="4" stroke-miterlimit="10" x1="56.25" y1="77.5" x2="125" y2="77.5"/>
	<polyline display="none" fill="none" stroke="#F39200" stroke-width="4" stroke-miterlimit="10" points="87.5,122.5 87.5,102.5 
		72.5,102.5 72.5,122.5 	"/>
</g>
<g id="Layer_2">
	<rect x="70" y="57.5" fill="none" stroke="#F39200" stroke-width="4" stroke-miterlimit="10" width="40" height="67.5"/>
	<path fill="#F39200" d="M70,112.5V125h40v-12.5H70z M92.5,122.5h-5v-5h5V122.5z"/>
</g>
</svg>
