<?xml version="1.0" encoding="utf-8"?>
<!-- Generator: Adobe Illustrator 16.0.0, SVG Export Plug-In . SVG Version: 6.00 Build 0)  -->
<!DOCTYPE svg PUBLIC "-//W3C//DTD SVG 1.1//EN" "http://www.w3.org/Graphics/SVG/1.1/DTD/svg11.dtd">
<svg version="1.1" id="Layer_1" xmlns="http://www.w3.org/2000/svg" xmlns:xlink="http://www.w3.org/1999/xlink" x="0px" y="0px"
	 width="175px" height="50px" viewBox="0 0 175 50" enable-background="new 0 0 175 50" xml:space="preserve">
<g>
	<defs>
		<rect id="SVGID_1_" x="-86.558" y="-146.657" width="340.16" height="340.16"/>
	</defs>
	<clipPath id="SVGID_2_">
		<use xlink:href="#SVGID_1_"  overflow="visible"/>
	</clipPath>
	<path clip-path="url(#SVGID_2_)" d="M2.929,38.077V13.013h6.133v2.966c0.537-0.838,1.097-1.491,1.685-1.961
		c0.586-0.469,1.189-0.829,1.81-1.081c0.62-0.252,1.248-0.41,1.886-0.477c0.635-0.068,1.289-0.101,1.961-0.101h0.853v6.686
		c-0.603-0.1-1.206-0.15-1.81-0.15c-3.989,0-5.983,1.995-5.983,5.982v13.199H2.929z"/>
	<path clip-path="url(#SVGID_2_)" d="M24.019,27.09c0.1,1.877,0.645,3.368,1.634,4.476c0.987,1.105,2.288,1.657,3.896,1.657
		c1.072,0,2.019-0.242,2.841-0.729c0.821-0.485,1.348-1.164,1.584-2.036h6.737c-0.772,2.548-2.112,4.509-4.023,5.883
		c-1.91,1.375-4.19,2.062-6.837,2.062c-8.246,0-12.369-4.491-12.369-13.475c0-1.91,0.269-3.637,0.805-5.178
		c0.536-1.541,1.315-2.865,2.338-3.971c1.022-1.106,2.27-1.953,3.746-2.54c1.475-0.585,3.168-0.879,5.078-0.879
		c3.82,0,6.712,1.224,8.672,3.67c1.961,2.447,2.941,6.135,2.941,11.061H24.019z M34.325,22.967c-0.034-0.904-0.193-1.7-0.479-2.387
		c-0.285-0.688-0.662-1.258-1.13-1.709c-0.47-0.453-1.006-0.787-1.61-1.006c-0.602-0.218-1.223-0.327-1.859-0.327
		c-1.307,0-2.439,0.478-3.395,1.433c-0.955,0.955-1.5,2.288-1.632,3.997H34.325z"/>
</g>
<g>
	<defs>
		<path id="SVGID_3_" d="M81.719,13.146c-1.345,0.387-2.458,0.91-3.31,1.558c-0.865,0.657-1.505,1.432-1.906,2.303
			c-0.399,0.865-0.6,1.793-0.6,2.76c0,1.05,0.146,2.015,0.438,2.865c0.298,0.882,0.88,1.698,1.733,2.426
			c0.829,0.712,1.992,1.368,3.458,1.95c1.447,0.576,3.374,1.133,5.726,1.655c1.251,0.281,2.186,0.608,2.778,0.974
			c0.508,0.313,0.754,0.82,0.754,1.551c0,0.387-0.106,0.948-1.045,1.354c-0.805,0.35-1.791,0.527-2.934,0.527
			c-1.341,0-2.437-0.287-3.256-0.855c-0.783-0.54-1.163-1.291-1.163-2.295v-0.413h-7.378l0.01,0.424
			c0.034,1.325,0.338,2.545,0.901,3.622c0.565,1.077,1.376,2.012,2.416,2.776c1.027,0.759,2.28,1.347,3.721,1.75
			c1.431,0.398,3.044,0.602,4.798,0.602c3.593,0,6.357-0.745,8.213-2.213c1.885-1.492,2.842-3.399,2.842-5.669
			c0-1.451-0.201-2.632-0.599-3.514c-0.405-0.899-1.08-1.657-2.008-2.254c-0.892-0.57-2.087-1.072-3.551-1.488
			c-1.434-0.406-3.19-0.902-5.273-1.49c-1.229-0.346-2.174-0.709-2.809-1.082c-0.542-0.317-0.796-0.699-0.796-1.203
			c0-0.585,0.242-0.97,0.761-1.211c0.609-0.282,1.544-0.425,2.78-0.425c1.268,0,2.211,0.227,2.802,0.671
			c0.573,0.436,0.938,1.159,1.085,2.148l0.052,0.353h6.901l-0.03-0.44c-0.171-2.575-1.104-4.624-2.776-6.092
			c-1.666-1.46-4.302-2.201-7.838-2.201C84.699,12.569,83.052,12.763,81.719,13.146"/>
	</defs>
	<linearGradient id="SVGID_4_" gradientUnits="userSpaceOnUse" x1="75.0142" y1="25.625" x2="97.915" y2="25.625">
		<stop  offset="0" style="stop-color:#F15A29"/>
		<stop  offset="1" style="stop-color:#FBB040"/>
	</linearGradient>
	<use xlink:href="#SVGID_3_"  overflow="visible" fill="url(#SVGID_4_)"/>
	<clipPath id="SVGID_5_">
		<use xlink:href="#SVGID_3_"  overflow="visible"/>
	</clipPath>
	
		<linearGradient id="SVGID_6_" gradientUnits="userSpaceOnUse" x1="-88.0513" y1="190.5615" x2="-87.0513" y2="190.5615" gradientTransform="matrix(0 26.1118 26.1118 0 -4889.4492 2311.7612)">
		<stop  offset="0" style="stop-color:#F15A29"/>
		<stop  offset="1" style="stop-color:#FBB040"/>
	</linearGradient>
	<rect x="75.014" y="12.569" clip-path="url(#SVGID_5_)" fill="url(#SVGID_6_)" width="22.901" height="26.111"/>
</g>
<g>
	<defs>
		<path id="SVGID_7_" d="M113.978,12.87v14.275c0,1.491-0.388,2.726-1.152,3.67c-0.755,0.932-1.854,1.385-3.364,1.385
			c-2.481,0-3.638-1.295-3.638-4.076V12.87H98.65v16.228c0,1.379,0.215,2.645,0.637,3.759c0.423,1.117,1.019,2.099,1.766,2.915
			c0.755,0.822,1.664,1.464,2.707,1.907c1.04,0.444,2.202,0.668,3.457,0.668c3.003,0,5.368-1.046,7.055-3.113v2.479h6.831V12.87
			H113.978z"/>
	</defs>
	<linearGradient id="SVGID_8_" gradientUnits="userSpaceOnUse" x1="98.6504" y1="25.6084" x2="121.1025" y2="25.6084">
		<stop  offset="0" style="stop-color:#F15A29"/>
		<stop  offset="1" style="stop-color:#FBB040"/>
	</linearGradient>
	<use xlink:href="#SVGID_7_"  overflow="visible" fill="url(#SVGID_8_)"/>
	<clipPath id="SVGID_9_">
		<use xlink:href="#SVGID_7_"  overflow="visible"/>
	</clipPath>
	
		<linearGradient id="SVGID_10_" gradientUnits="userSpaceOnUse" x1="-88.0483" y1="190.5625" x2="-87.0483" y2="190.5625" gradientTransform="matrix(0 25.4775 25.4775 0 -4745.1934 2256.134)">
		<stop  offset="0" style="stop-color:#F15A29"/>
		<stop  offset="1" style="stop-color:#FBB040"/>
	</linearGradient>
	<rect x="98.65" y="12.87" clip-path="url(#SVGID_9_)" fill="url(#SVGID_10_)" width="22.452" height="25.477"/>
</g>
<g>
	<defs>
		<path id="SVGID_11_" d="M136.648,12.235c-0.662,0-1.316,0.034-1.947,0.1c-0.656,0.069-1.309,0.235-1.942,0.492
			c-0.637,0.257-1.263,0.631-1.86,1.109c-0.327,0.264-0.651,0.583-0.963,0.958V12.87h-6.782v24.842h7.173v-12.91
			c0-3.628,1.765-5.394,5.395-5.394c0.561,0,1.128,0.047,1.689,0.14l0.482,0.08v-7.393H136.648z"/>
	</defs>
	<clipPath id="SVGID_12_">
		<use xlink:href="#SVGID_11_"  overflow="visible"/>
	</clipPath>
	
		<linearGradient id="SVGID_13_" gradientUnits="userSpaceOnUse" x1="-88.0488" y1="190.5635" x2="-87.0488" y2="190.5635" gradientTransform="matrix(0 25.4771 25.4771 0 -4724.4766 2255.4736)">
		<stop  offset="0" style="stop-color:#F15A29"/>
		<stop  offset="1" style="stop-color:#FBB040"/>
	</linearGradient>
	<rect x="123.153" y="12.235" clip-path="url(#SVGID_12_)" fill="url(#SVGID_13_)" width="14.739" height="25.477"/>
</g>
<g>
	<defs>
		<polygon id="SVGID_14_" points="155.363,12.87 150.591,27.783 147.363,12.87 139.396,12.87 146.783,37.712 154.003,37.712 
			162.94,12.87 		"/>
	</defs>
	<linearGradient id="SVGID_15_" gradientUnits="userSpaceOnUse" x1="139.3965" y1="25.291" x2="162.9404" y2="25.291">
		<stop  offset="0" style="stop-color:#F15A29"/>
		<stop  offset="1" style="stop-color:#FBB040"/>
	</linearGradient>
	<use xlink:href="#SVGID_14_"  overflow="visible" fill="url(#SVGID_15_)"/>
	<clipPath id="SVGID_16_">
		<use xlink:href="#SVGID_14_"  overflow="visible"/>
	</clipPath>
	
		<linearGradient id="SVGID_17_" gradientUnits="userSpaceOnUse" x1="-88.0464" y1="190.5645" x2="-87.0464" y2="190.5645" gradientTransform="matrix(0 24.8428 24.8428 0 -4583.0015 2200.1743)">
		<stop  offset="0" style="stop-color:#F15A29"/>
		<stop  offset="1" style="stop-color:#FBB040"/>
	</linearGradient>
	<rect x="139.396" y="12.87" clip-path="url(#SVGID_16_)" fill="url(#SVGID_17_)" width="23.544" height="24.842"/>
</g>
<g>
	<defs>
		<rect id="SVGID_18_" x="-86.558" y="-146.657" width="340.16" height="340.16"/>
	</defs>
	<clipPath id="SVGID_19_">
		<use xlink:href="#SVGID_18_"  overflow="visible"/>
	</clipPath>
	<rect x="66.594" y="4.267" clip-path="url(#SVGID_19_)" width="6.536" height="33.785"/>
	<path clip-path="url(#SVGID_19_)" d="M58.511,37.837c-0.202-0.639-0.337-1.379-0.403-2.221c-0.775,0.876-1.8,1.572-3.079,2.095
		c-1.278,0.521-2.758,0.781-4.44,0.781c-2.859,0-4.953-0.63-6.28-1.893c-1.329-1.261-1.993-2.899-1.993-4.919
		c0-1.781,0.285-3.203,0.857-4.263c0.572-1.059,1.363-1.892,2.371-2.497c1.01-0.606,2.211-1.052,3.608-1.337
		c1.395-0.285,2.918-0.547,4.566-0.783c1.648-0.233,2.758-0.545,3.33-0.932c0.572-0.387,0.858-1.018,0.858-1.893
		c0-0.807-0.379-1.438-1.135-1.892c-0.757-0.454-1.776-0.68-3.053-0.68c-1.514,0-2.598,0.336-3.254,1.008
		c-0.656,0.673-1.068,1.564-1.236,2.673h-6.106c0.034-1.277,0.245-2.454,0.631-3.532c0.387-1.076,1.01-2,1.867-2.774
		c0.858-0.774,1.976-1.371,3.356-1.791c1.379-0.42,3.06-0.631,5.045-0.631c1.95,0,3.607,0.219,4.97,0.656
		c1.362,0.437,2.455,1.068,3.279,1.892c0.823,0.824,1.421,1.85,1.791,3.078c0.37,1.228,0.556,2.615,0.556,4.161v15.691H58.511z
		 M58.057,25.677c-0.337,0.337-0.824,0.605-1.464,0.809c-0.639,0.2-1.564,0.421-2.773,0.654c-1.885,0.371-3.18,0.842-3.886,1.413
		c-0.706,0.572-1.06,1.397-1.06,2.474c0,1.85,1.06,2.773,3.179,2.773c0.841,0,1.622-0.143,2.347-0.429
		c0.722-0.285,1.343-0.672,1.866-1.16c0.52-0.487,0.941-1.059,1.261-1.715c0.319-0.656,0.48-1.354,0.48-2.094L58.057,25.677z"/>
	<polygon clip-path="url(#SVGID_19_)" points="3.362,46.483 3.362,42.308 4.775,42.308 4.775,42.765 3.877,42.765 3.877,44.144 
		4.677,44.144 4.677,44.577 3.877,44.577 3.877,46.031 4.77,46.031 4.77,46.483 	"/>
	<polygon clip-path="url(#SVGID_19_)" points="11.112,46.483 11.112,42.308 11.622,42.308 12.878,45.405 12.878,42.308 13.4,42.308 
		13.4,46.483 12.89,46.483 11.622,43.472 11.622,46.483 	"/>
	<path clip-path="url(#SVGID_19_)" d="M22.14,43.31l-0.44,0.099c-0.07-0.487-0.282-0.729-0.637-0.729
		c-0.267,0-0.462,0.145-0.588,0.434c-0.126,0.29-0.188,0.748-0.188,1.373c0,1.089,0.256,1.633,0.77,1.633
		c0.367,0,0.55-0.264,0.55-0.793v-0.614h-0.417v-0.439h0.916v0.979v0.237c-0.012,0.069-0.02,0.119-0.024,0.151
		c-0.034,0.288-0.141,0.516-0.318,0.68c-0.178,0.164-0.415,0.246-0.713,0.246c-0.216,0-0.414-0.05-0.593-0.15
		c-0.18-0.101-0.32-0.241-0.42-0.423c-0.178-0.344-0.267-0.865-0.267-1.564c0-0.79,0.124-1.375,0.371-1.748
		c0.197-0.299,0.496-0.446,0.898-0.446c0.309,0,0.559,0.093,0.753,0.281C21.985,42.7,22.101,42.965,22.14,43.31"/>
	<rect x="28.522" y="42.307" clip-path="url(#SVGID_19_)" width="0.515" height="4.177"/>
	<polygon clip-path="url(#SVGID_19_)" points="35.537,46.483 35.537,42.308 36.047,42.308 37.303,45.405 37.303,42.308 
		37.825,42.308 37.825,46.483 37.315,46.483 36.047,43.472 36.047,46.483 	"/>
	<polygon clip-path="url(#SVGID_19_)" points="44.318,46.483 44.318,42.308 45.731,42.308 45.731,42.765 44.833,42.765 
		44.833,44.144 45.633,44.144 45.633,44.577 44.833,44.577 44.833,46.031 45.726,46.031 45.726,46.483 	"/>
	<polygon clip-path="url(#SVGID_19_)" points="52.067,46.483 52.067,42.308 53.48,42.308 53.48,42.765 52.583,42.765 52.583,44.144 
		53.383,44.144 53.383,44.577 52.583,44.577 52.583,46.031 53.476,46.031 53.476,46.483 	"/>
	<path clip-path="url(#SVGID_19_)" d="M59.817,46.483v-4.176h0.816c0.877,0,1.315,0.396,1.315,1.187c0,0.576-0.257,0.958-0.77,1.147
		l0.956,1.842h-0.574l-0.846-1.731l-0.231,0.011l-0.151-0.005v1.726H59.817z M60.333,42.754v1.593h0.093
		c0.39,0,0.656-0.082,0.799-0.247c0.143-0.164,0.214-0.367,0.214-0.611c0-0.397-0.171-0.631-0.515-0.701
		c-0.124-0.022-0.282-0.033-0.475-0.033H60.333z"/>
	<rect x="68.309" y="42.307" clip-path="url(#SVGID_19_)" width="0.515" height="4.177"/>
	<polygon clip-path="url(#SVGID_19_)" points="75.323,46.483 75.323,42.308 75.833,42.308 77.089,45.405 77.089,42.308 
		77.611,42.308 77.611,46.483 77.101,46.483 75.833,43.472 75.833,46.483 	"/>
	<path clip-path="url(#SVGID_19_)" d="M86.352,43.31l-0.44,0.099c-0.07-0.487-0.282-0.729-0.637-0.729
		c-0.268,0-0.462,0.145-0.588,0.434c-0.126,0.29-0.188,0.748-0.188,1.373c0,1.089,0.256,1.633,0.771,1.633
		c0.366,0,0.55-0.264,0.55-0.793v-0.614h-0.417v-0.439h0.916v0.979v0.237c-0.013,0.069-0.021,0.119-0.024,0.151
		c-0.034,0.288-0.141,0.516-0.318,0.68s-0.414,0.246-0.713,0.246c-0.216,0-0.414-0.05-0.593-0.15c-0.18-0.101-0.32-0.241-0.42-0.423
		c-0.178-0.344-0.267-0.865-0.267-1.564c0-0.79,0.124-1.375,0.371-1.748c0.196-0.299,0.495-0.446,0.897-0.446
		c0.31,0,0.56,0.093,0.753,0.281C86.197,42.7,86.313,42.965,86.352,43.31"/>
	<path clip-path="url(#SVGID_19_)" d="M95.428,46.374v-0.527c0.224,0.17,0.436,0.255,0.637,0.255c0.159,0,0.288-0.047,0.388-0.139
		c0.102-0.093,0.151-0.222,0.151-0.383c0-0.247-0.176-0.606-0.527-1.077l-0.231-0.313c-0.274-0.375-0.411-0.718-0.411-1.031
		c0-0.281,0.085-0.507,0.255-0.678c0.17-0.169,0.396-0.255,0.683-0.255c0.259,0,0.504,0.076,0.736,0.227v0.527
		c-0.22-0.209-0.446-0.313-0.678-0.313c-0.127,0-0.238,0.047-0.333,0.142c-0.095,0.094-0.143,0.213-0.143,0.356
		c0,0.089,0.01,0.161,0.029,0.22c0.046,0.146,0.209,0.415,0.487,0.805c0.17,0.232,0.311,0.448,0.422,0.649
		c0.159,0.293,0.237,0.542,0.237,0.747c0,0.294-0.092,0.529-0.274,0.71c-0.185,0.179-0.422,0.269-0.715,0.269
		C95.908,46.564,95.671,46.501,95.428,46.374"/>
	<path clip-path="url(#SVGID_19_)" d="M105.628,42.308v3.196c0,0.183-0.009,0.313-0.023,0.395c-0.035,0.209-0.146,0.373-0.336,0.491
		c-0.189,0.12-0.434,0.181-0.736,0.181c-0.459,0-0.777-0.129-0.955-0.388c-0.089-0.132-0.133-0.357-0.133-0.679v-3.196h0.516v3.196
		c0,0.136,0.01,0.23,0.028,0.284c0.042,0.224,0.225,0.336,0.544,0.336c0.232,0,0.396-0.064,0.493-0.197
		c0.054-0.076,0.081-0.218,0.081-0.423v-3.196H105.628z"/>
	<path clip-path="url(#SVGID_19_)" d="M112.121,46.483v-4.176h0.815c0.877,0,1.315,0.396,1.315,1.187
		c0,0.576-0.257,0.958-0.771,1.147l0.956,1.842h-0.573l-0.847-1.731l-0.23,0.011l-0.151-0.005v1.726H112.121z M112.636,42.754v1.593
		h0.093c0.391,0,0.656-0.082,0.8-0.247c0.143-0.164,0.214-0.367,0.214-0.611c0-0.397-0.171-0.631-0.516-0.701
		c-0.124-0.022-0.281-0.033-0.475-0.033H112.636z"/>
	<polygon clip-path="url(#SVGID_19_)" points="120.241,42.308 120.785,42.308 121.469,45.713 122.199,42.308 122.72,42.308 
		121.741,46.483 121.191,46.483 	"/>
	<polygon clip-path="url(#SVGID_19_)" points="128.854,46.483 128.854,42.308 130.268,42.308 130.268,42.765 129.369,42.765 
		129.369,44.144 130.169,44.144 130.169,44.577 129.369,44.577 129.369,46.031 130.263,46.031 130.263,46.483 	"/>
	<polygon clip-path="url(#SVGID_19_)" points="136.164,42.308 136.69,42.308 137.409,44.218 138.116,42.308 138.648,42.308 
		137.676,44.792 137.676,46.483 137.153,46.483 137.153,44.792 	"/>
	<path clip-path="url(#SVGID_19_)" d="M144.429,44.397c0-0.655,0.098-1.182,0.292-1.577c0.196-0.396,0.505-0.595,0.931-0.595
		c0.421,0,0.729,0.199,0.927,0.598c0.197,0.397,0.295,0.923,0.295,1.574c0,0.646-0.096,1.169-0.289,1.57s-0.504,0.603-0.933,0.603
		c-0.413,0-0.721-0.2-0.922-0.6C144.529,45.571,144.429,45.047,144.429,44.397 M145.651,42.672c-0.468,0-0.701,0.576-0.701,1.726
		c0,0.554,0.059,0.979,0.177,1.278c0.118,0.299,0.291,0.448,0.518,0.448c0.218,0,0.388-0.15,0.514-0.451s0.188-0.726,0.188-1.275
		c0-0.552-0.059-0.977-0.176-1.276C146.052,42.822,145.879,42.672,145.651,42.672"/>
	<path clip-path="url(#SVGID_19_)" d="M153.251,46.483v-4.176h0.816c0.877,0,1.314,0.396,1.314,1.187
		c0,0.576-0.257,0.958-0.77,1.147l0.956,1.842h-0.574l-0.846-1.731l-0.231,0.011l-0.151-0.005v1.726H153.251z M153.766,42.754v1.593
		h0.094c0.39,0,0.655-0.082,0.799-0.247c0.143-0.164,0.214-0.367,0.214-0.611c0-0.397-0.171-0.631-0.515-0.701
		c-0.124-0.022-0.282-0.033-0.476-0.033H153.766z"/>
	<path clip-path="url(#SVGID_19_)" d="M161.539,46.374v-0.527c0.224,0.17,0.436,0.255,0.637,0.255c0.159,0,0.288-0.047,0.388-0.139
		c0.102-0.093,0.151-0.222,0.151-0.383c0-0.247-0.176-0.606-0.527-1.077l-0.231-0.313c-0.274-0.375-0.411-0.718-0.411-1.031
		c0-0.281,0.085-0.507,0.255-0.678c0.17-0.169,0.397-0.255,0.683-0.255c0.26,0,0.505,0.076,0.736,0.227v0.527
		c-0.22-0.209-0.446-0.313-0.678-0.313c-0.127,0-0.238,0.047-0.333,0.142c-0.094,0.094-0.143,0.213-0.143,0.356
		c0,0.089,0.011,0.161,0.029,0.22c0.046,0.146,0.209,0.415,0.487,0.805c0.17,0.232,0.311,0.448,0.422,0.649
		c0.159,0.293,0.238,0.542,0.238,0.747c0,0.294-0.093,0.529-0.275,0.71c-0.184,0.179-0.422,0.269-0.715,0.269
		C162.02,46.564,161.783,46.501,161.539,46.374"/>
	<linearGradient id="SVGID_20_" gradientUnits="userSpaceOnUse" x1="165.4688" y1="4.9131" x2="166.4287" y2="4.9131">
		<stop  offset="0" style="stop-color:#F15A29"/>
		<stop  offset="1" style="stop-color:#FBB040"/>
	</linearGradient>
	<rect x="165.469" y="1.775" clip-path="url(#SVGID_19_)" fill="url(#SVGID_20_)" width="0.96" height="6.275"/>
	<linearGradient id="SVGID_21_" gradientUnits="userSpaceOnUse" x1="156.2715" y1="8.7974" x2="164.0479" y2="8.7974">
		<stop  offset="0" style="stop-color:#F15A29"/>
		<stop  offset="1" style="stop-color:#FBB040"/>
	</linearGradient>
	<polygon clip-path="url(#SVGID_19_)" fill="url(#SVGID_21_)" points="164.048,8.198 156.563,8.198 156.271,9.397 164.048,9.397 	
		"/>
	<linearGradient id="SVGID_22_" gradientUnits="userSpaceOnUse" x1="166.4287" y1="16.8525" x2="167.3887" y2="16.8525">
		<stop  offset="0" style="stop-color:#F15A29"/>
		<stop  offset="1" style="stop-color:#FBB040"/>
	</linearGradient>
	<rect x="166.429" y="12.252" clip-path="url(#SVGID_19_)" fill="url(#SVGID_22_)" width="0.96" height="9.201"/>
	<linearGradient id="SVGID_23_" gradientUnits="userSpaceOnUse" x1="167.3516" y1="9.9976" x2="174.5547" y2="9.9976">
		<stop  offset="0" style="stop-color:#F15A29"/>
		<stop  offset="1" style="stop-color:#FBB040"/>
	</linearGradient>
	<rect x="167.352" y="9.396" clip-path="url(#SVGID_19_)" fill="url(#SVGID_23_)" width="7.203" height="1.202"/>
	<linearGradient id="SVGID_24_" gradientUnits="userSpaceOnUse" x1="155.6318" y1="11.1982" x2="164.1982" y2="11.1982">
		<stop  offset="0" style="stop-color:#F15A29"/>
		<stop  offset="1" style="stop-color:#FBB040"/>
	</linearGradient>
	<polygon clip-path="url(#SVGID_19_)" fill="url(#SVGID_24_)" points="164.198,10.598 155.948,10.598 155.632,11.798 
		164.198,11.798 	"/>
	<linearGradient id="SVGID_25_" gradientUnits="userSpaceOnUse" x1="164.5059" y1="16.8525" x2="165.4688" y2="16.8525">
		<stop  offset="0" style="stop-color:#F15A29"/>
		<stop  offset="1" style="stop-color:#FBB040"/>
	</linearGradient>
	<rect x="164.506" y="12.252" clip-path="url(#SVGID_19_)" fill="url(#SVGID_25_)" width="0.963" height="9.201"/>
</g>
</svg>
