<?xml version="1.0" encoding="utf-8"?>
<!-- Generator: Adobe Illustrator 16.0.0, SVG Export Plug-In . SVG Version: 6.00 Build 0)  -->
<!DOCTYPE svg PUBLIC "-//W3C//DTD SVG 1.1//EN" "http://www.w3.org/Graphics/SVG/1.1/DTD/svg11.dtd">
<svg version="1.1" id="Layer_1" xmlns="http://www.w3.org/2000/svg" xmlns:xlink="http://www.w3.org/1999/xlink" x="0px" y="0px"
	 width="100px" height="100px" viewBox="0 0 100 100" enable-background="new 0 0 100 100" xml:space="preserve">
<polyline display="none" fill="#FFFFFF" points="92,47 52,15 8,47 "/>
<polygon fill="#F39205" points="88,38.96 88,46.64 51.91,17.77 12,46.8 12,39.38 52.09,10.23 68,22.96 76,29.36 "/>
<path fill="#F39205" d="M52,20L16,46.18V88h68V45.6L52,20z M40,84H24V56h16V84z M64,72h-8v-8h8V72z M64,60h-8v-8h8V60z M76,72h-8v-8
	h8V72z M76,60h-8v-8h8V60z"/>
<polygon fill="#F39205" points="76,15 76,27.36 68,20.96 68,15 "/>
<g>
</g>
<g>
</g>
<g>
</g>
<g>
</g>
<g>
</g>
<g>
</g>
</svg>
